# xmcd
# Copyright (C) 1995-1998 Ti Kan
#
# Track frame offsets:
#       150
#       14575
#       27777
#       38574
#       53152
#       68723
#       87432
#       104297
#       117287
#       127264
#       140569
#       155149
#       175185
#       188525
#       202673
#       215043
#       228055
#       240193
#       251574
#       263036
#       277825
#       288466
#
# Disc length: 3997 seconds
#
# Revision: 0
# Processed by: cddbd v1.5.2PL0 Copyright (c) Steve Scherf et al.
# Submitted via: CD-Import v1.0
#
DISCID=300f9b16
DTITLE=Peggy Lee - Best Of Peggy Lee Singles Collection
DYEAR=1900
DGENRE=
TTITLE0=At The Café Rendezvous
TTITLE1=Birmingham Jail
TTITLE2=Come Back To Me
TTITLE3=Don`t Smoke In Bed
TTITLE4=Fever
TTITLE5=Fever (Gabin 'fever' Remix)
TTITLE6=The Folks Who Live On The Hill
TTITLE7=I Love Being Here With You
TTITLE8=I`m Gonna Go Fishin`
TTITLE9=I`m Looking Out The Window
TTITLE10=If You Could See Me Now
TTITLE11=Is This All There Is?
TTITLE12=It`s A Good Day
TTITLE13=Let`s Call It A Day
TTITLE14=Life Is So Peculiar
TTITLE15=Moments Like This
TTITLE16=My Gentle Young Johnny
TTITLE17=Once Around The Moon
TTITLE18=Senza Fine
TTITLE19=Something
TTITLE20=Yeah! Yeah! Yeah!
TTITLE21=You Was Right, Baby
EXTD=
EXTT0=
EXTT1=
EXTT2=
EXTT3=
EXTT4=
EXTT5=
EXTT6=
EXTT7=
EXTT8=
EXTT9=
EXTT10=
EXTT11=
EXTT12=
EXTT13=
EXTT14=
EXTT15=
EXTT16=
EXTT17=
EXTT18=
EXTT19=
EXTT20=
EXTT21=
PLAYORDER=
